<?xml version="1.0" encoding="UTF-8"?> <!-- Generator: Adobe Illustrator 23.0.5, SVG Export Plug-In . SVG Version: 6.00 Build 0) --> <svg xmlns="http://www.w3.org/2000/svg" xmlns:xlink="http://www.w3.org/1999/xlink" version="1.1" id="Capa_1" x="0px" y="0px" viewBox="0 0 681 401" style="enable-background:new 0 0 681 401;" xml:space="preserve"> <style type="text/css"> .st0{fill:#7ED3B2;} .st1{fill:#6AB797;} .st2{fill:#2D4059;} .st3{fill:#FFFFFF;} .st4{fill:#FFD266;} .st5{fill:#FFC333;} .st6{opacity:0.22;fill:#FFFFFF;} .st7{fill:#F2F2F2;} .st8{opacity:0.18;} .st9{fill:#EF6C57;} .st10{fill:#E6E6E6;} .st11{fill:#CCCCCC;} .st12{fill:#216583;} .st13{fill:#CFFDF8;} .st14{fill:#65C0BA;} .st15{fill:#F9A364;} .st16{fill:#863D31;} .st17{fill:#D18959;} .st18{fill:#B35141;} .st19{fill:#FFB400;} </style> <rect x="0.5" y="0.5" class="st0" width="680" height="400"></rect> <g> <g> <ellipse class="st1" cx="351.9" cy="349.5" rx="134.7" ry="8.6"></ellipse> </g> <g> <path class="st2" d="M469.1,303.4l-132,44.3c-7.8,2.6-17.3,0.6-21.3-4.5l-151-193.1c-4-5.1-0.9-11.3,6.9-13.9l8.3-2.8l123.8-33.7 c7.8-2.6,9.1-5,13,0.1L476,289.5C480,294.6,476.9,300.8,469.1,303.4z"></path> <path class="st3" d="M470.1,303.1l-121.6,40.8c-7.2,2.4-16,0.6-19.7-4.2l-152-194.4c-3.7-4.7-0.8-10.5,6.4-12.9l121.6-40.8 c7.2-2.4,16-0.6,19.7,4.2l152,194.4C480.2,294.9,477.3,300.6,470.1,303.1z"></path> <g> <path class="st2" d="M243.4,124.8c-1.1,0.3-2.3,0-2.8-0.7c-0.6-0.7-0.1-1.6,1-2l28.7-9.7c1.1-0.4,2.5-0.1,3,0.6 c0.6,0.7,0.1,1.6-1,2l-28.7,9.7C243.6,124.8,243.5,124.8,243.4,124.8z"></path> <g> <path class="st2" d="M227.2,130.7c4.4,0,4.4-4.4,0-4.4C222.8,126.3,222.8,130.7,227.2,130.7L227.2,130.7z"></path> </g> </g> <path class="st4" d="M456.9,278.2l-131.4,44.1c-1.1,0.4-2.5,0.1-3-0.6l-14.6-18.7L190.7,153.1c-0.6-0.7-0.1-1.6,1-2L323,107.1 c1.1-0.4,2.5-0.1,3,0.6l93.8,119.9l38,48.6C458.4,277,458,277.9,456.9,278.2z"></path> <path class="st5" d="M307.9,302.9l14.6,18.7c0.6,0.7,1.9,1,3,0.6l131.4-44.1c1.1-0.4,1.5-1.3,1-2l-38-48.6c0,0-18.9,7.6-28.1,32.3 C379.2,293.8,307.9,302.9,307.9,302.9z"></path> <g> <polygon class="st6" points="229.9,137.5 323.3,323.3 372.1,306.4 279.9,121.5 "></polygon> <polygon class="st6" points="293.7,116.9 391.8,300.1 415.2,292.2 316.2,110.4 "></polygon> </g> <ellipse class="st7" cx="402.1" cy="310.9" rx="12.1" ry="7.9"></ellipse> </g> <g> <g> <g class="st8"> <path d="M404.6,146.7l-131.4,44.1c-1.1,0.4-2.5,0.1-3-0.6l-67.3-86c-0.6-0.7-0.1-1.6,1-2L335.3,58c1.1-0.4,2.5-0.1,3,0.6 l67.3,86C406.1,145.4,405.7,146.3,404.6,146.7z"></path> </g> <g> <path class="st3" d="M404.6,132.7l-131.4,44.1c-1.1,0.4-2.5,0.1-3-0.6l-67.3-86c-0.6-0.7-0.1-1.6,1-2L335.3,44 c1.1-0.4,2.5-0.1,3,0.6l67.3,86C406.1,131.4,405.7,132.3,404.6,132.7z"></path> </g> </g> <path class="st9" d="M384.5,107l-131.4,44.1c-1.1,0.4-2.5,0.1-3-0.6l-30.3-38.7c-0.6-0.7-0.1-1.6,1-2l131.4-44.1 c1.1-0.4,2.5-0.1,3,0.6l30.3,38.7C386.1,105.8,385.7,106.7,384.5,107z"></path> <g> <path class="st9" d="M235.8,90.4c2.6,3.1,0.8,7.1-3.9,8.8c-4.8,1.7-10.8,0.5-13.4-2.6c-2.6-3.1-0.8-7.1,3.9-8.8 C227.2,86.1,233.2,87.3,235.8,90.4z"></path> <path class="st3" d="M229,92.9c0.2-0.4,0.1-0.9-0.2-1.4c-0.7-0.9-2.5-1.2-3.8-0.7c-1.4,0.5-1.9,1.6-1.1,2.5 c0.4,0.4,1,0.7,1.6,0.9c-1.4,0.9-2.1,2.1-2.1,3.3c2.1,0.9,4.9,1,7.3,0.2c2.4-0.8,3.7-2.5,3.8-4.1C232.8,92.9,230.9,92.6,229,92.9 z"></path> </g> <path class="st9" d="M289,149.6c-1.2-1.6-4.3-2.1-7.1-1.3c-2.7,0.9-4,2.8-2.9,4.4c-1.2-1.6-4.3-2.1-7.1-1.3 c-2.7,0.9-4,2.8-2.9,4.4c0,0,3.4,7.1,17.1,6.5C295.4,155.8,289,149.6,289,149.6z"></path> <path class="st10" d="M323,149l-3.7-1.8c-0.1-1-0.4-2-1.2-3c-2.8-3.6-9.5-5-14.9-3.2c-5.5,1.8-7.7,6.2-4.9,9.8 c2.8,3.6,9.5,5,14.9,3.2c2.5-0.8,4.3-2.2,5.3-3.7l4-0.1C323.4,150.1,323.7,149.3,323,149z"></path> <g> <polygon class="st11" points="339.4,129.2 334.2,139 322.5,139.7 "></polygon> <polygon class="st10" points="339.4,129.2 334.2,139 342.7,144.3 "></polygon> </g> <path class="st11" d="M245.4,88.3l-1-1.3c-0.3-0.4-0.1-0.8,0.5-1l29.8-9.9c0.6-0.2,1.2,0,1.5,0.3l1,1.3c0.3,0.4,0.1,0.8-0.5,1 L247,88.7C246.4,88.9,245.7,88.7,245.4,88.3z"></path> <g> <polygon class="st6" points="254,71.2 288.3,171.7 320.4,160.9 288.6,59.6 "></polygon> <polygon class="st6" points="300.3,55.7 331.5,157.2 348.2,151.6 316,50.4 "></polygon> </g> </g> <g> <ellipse class="st3" cx="459.7" cy="100.4" rx="28.5" ry="18.7"></ellipse> <g> <path class="st12" d="M462.3,105.3c1.4-1.8,0.2-4-2.6-4.9c-2.8-0.9-6.2-0.1-7.5,1.7c-1.4,1.8-0.2,4,2.6,4.9 C457.5,107.9,460.9,107.1,462.3,105.3z"></path> <path class="st12" d="M451.5,98.6l-3.4-3c4.6-2.3,10.7-2.6,15.8-1c5.2,1.7,8.4,5,8.5,8.8l-5.6,0.1c-0.1-2.4-2.1-4.5-5.4-5.5 C458.2,97,454.4,97.2,451.5,98.6z"></path> <path class="st12" d="M446,93.8l-3.4-3c7.4-3.6,17.1-4.2,25.4-1.5c8.3,2.7,13.5,8.1,13.6,14.1l-5.6,0.1 c-0.1-4.6-4.1-8.8-10.5-10.8C459.1,90.6,451.7,91.1,446,93.8z"></path> </g> </g> <g> <path class="st13" d="M535.1,123.1l-30.8-7.4c-0.3-0.1-0.5-0.3-0.4-0.5l7.5-13.4c0.1-0.2,0.5-0.3,0.8-0.3l15.4,3.7l15.4,3.7 c0.3,0.1,0.5,0.3,0.4,0.5l-7.5,13.4C535.8,123,535.5,123.2,535.1,123.1z"></path> <path class="st3" d="M543.1,109.6c0.6-0.1,0.5-0.7,0-0.8l-15.4-3.7l-15.4-3.7c-0.6-0.1-1.1,0.3-0.8,0.6l10.7,12.1 c0.2,0.2,0.5,0.3,0.8,0.2L543.1,109.6z"></path> </g> <g> <path class="st13" d="M523.1,182.7c-2.1-6.2-11.5-10.2-21-8.8c-9.5,1.4-15.5,7.5-13.5,13.7c2.1,6.2,11.5,10.2,21,8.8 C519.1,195.1,525.2,189,523.1,182.7z"></path> <g> <path class="st14" d="M508.4,184.8c-0.3-0.9-1.7-1.5-3.1-1.3c-1.4,0.2-2.3,1.1-2,2c0.3,0.9,1.7,1.5,3.1,1.3 C507.8,186.7,508.7,185.8,508.4,184.8z"></path> <path class="st14" d="M500.9,185.9c-0.3-0.9-1.7-1.5-3.1-1.3c-1.4,0.2-2.3,1.1-2,2c0.3,0.9,1.7,1.5,3.1,1.3 C500.3,187.7,501.2,186.8,500.9,185.9z"></path> <path class="st14" d="M515.9,183.8c-0.3-0.9-1.7-1.5-3.1-1.3c-1.4,0.2-2.3,1.1-2,2c0.3,0.9,1.7,1.5,3.1,1.3 C515.3,185.6,516.2,184.7,515.9,183.8z"></path> </g> </g> <g> <path class="st15" d="M311,245.3c0,0-3.1,12.6,10.7,21.4c13.8,8.9,30.7,25.4,34.1,45.4l35.9-12c0,0-11.2-9.3-17.6-19.9 c-3-4.9-5-10-4.5-14.7c1.6-13.8-4.8-23.3-4.8-23.3l-44.2,2.5L311,245.3z"></path> <path class="st16" d="M341.7,256.5l-32-39c-2.2-2.7-0.7-6.1,3.4-7.5c4.1-1.4,9.2-0.4,11.5,2.3l34.3,41.8"></path> <path class="st15" d="M311,245.3c0,0,4.7-12,8.7-16.6c2.8-3.2,10.5-5.2,10.5,2.2c0,7.4-1.5,14.4-1.5,14.4H311z"></path> <path class="st17" d="M374.1,280.2c-3-4.9-5-10-4.5-14.7c1.6-13.8-4.8-23.3-4.8-23.3l-34.6-9.3c0,0-24.1,13,11,35.1 C353.7,275.8,374.1,280.2,374.1,280.2z"></path> <path class="st16" d="M358.8,254l5.1,6.2c2.2,2.7,0.7,6.1-3.4,7.5c-1.2,0.4-2.5,0.6-3.8,0.7c-3.1,0-6.1-1-7.6-2.9l-7.4-9"></path> <g> <path class="st15" d="M347.6,258.7c0,0,21.4-2.5,26.7-6.4c5.3-3.9-4.5-19.6-19.9-26.8c-15.4-7.2-26.2,10.4-27.6,11.7 c-1.4,1.3-4.4,6.3-2.3,8.6c2.1,2.2,4.9,1.2,4.9,1.2s-2.5,1.7-0.6,3.2c1.9,1.5,4.8,1,4.8,1s-1.7,1.8-0.3,3.1 c2,1.8,4.8,0.9,4.8,0.9s-1.3,1.6,0.4,2.7c1.7,1.1,6.2,1,6.2,1S346.7,258.8,347.6,258.7z"></path> <g> <path class="st17" d="M330.3,246.6c-0.1,0-0.2,0-0.3-0.1c-0.2-0.1-0.2-0.3-0.1-0.4c0.6-0.5,14.4-11.2,15.1-11.7 c0.2-0.1,0.4-0.1,0.6,0c0.2,0.1,0.2,0.3,0,0.4c-0.6,0.4-10.1,7.8-15.1,11.7C330.6,246.6,330.4,246.6,330.3,246.6z"></path> <path class="st17" d="M333.5,251.5c-0.1,0-0.3,0-0.4-0.1c-0.1-0.1-0.1-0.3,0.1-0.4c0.7-0.3,17.6-7.5,20.9-8.4 c0.2-0.1,0.5,0,0.5,0.2c0.1,0.1,0,0.3-0.2,0.4c-3.3,0.9-20.6,8.3-20.8,8.4C333.6,251.4,333.6,251.5,333.5,251.5z"></path> <path class="st17" d="M338,255.4c-0.2,0-0.4-0.1-0.4-0.2c-0.1-0.1,0.1-0.3,0.3-0.3c0.2,0,19.4-3.8,21.9-4.5 c0.2-0.1,0.5,0,0.6,0.1c0.1,0.1,0,0.3-0.2,0.4c-2.5,0.7-21.2,4.4-22,4.5C338.1,255.4,338,255.4,338,255.4z"></path> </g> <g> <path class="st18" d="M324.1,227.8c-1.2,0.4-2.3,1-2.9,1.8c-0.9,1.1-2.1,2.6-2.3,3.1c-0.3,0.8-0.4,1.5,0.9,1.7 c1.2,0.2,5.3,0.6,6.7,0c1.4-0.6,2.1-3.7,1.3-5.2C327.1,228.1,325.7,227.3,324.1,227.8z"></path> <path class="st18" d="M330.7,240.5c0,0-3.7-1.7-4.9,0.8c-1.3,2.6-0.2,4.2,0.9,4.6c1.1,0.3,3,0.1,5.3-2 C334.2,241.7,331.2,240.7,330.7,240.5z"></path> <path class="st18" d="M332.5,246.2c0,0-4.2,2.3-2.4,3.4c1.8,1.1,5.8-0.8,5.8-0.8s1.9-0.9,0.2-2.2 C334.3,245.3,332.6,246.1,332.5,246.2z"></path> <path class="st18" d="M343.6,254.8c0,0-4.7,0.5-4.1,1.9c0.5,1.3,4.8,1.1,4.8,1.1s2-0.1,1.7-1.6 C345.6,254.6,343.8,254.8,343.6,254.8z"></path> <path class="st18" d="M337.7,250.8c0,0-4.6,1-3.3,2.7c1.2,1.7,5.5,0.1,6.5-0.2c0.9-0.4-0.4-2.5-0.8-2.7 C339.6,250.4,338.4,250.7,337.7,250.8z"></path> </g> </g> <g> <path class="st18" d="M336.5,213.2c0,0-7.5,1.8-13.7,6.2c-5.7,4.1-11.3,6.4-11.3,6.4c-10.2,3.4-24.4-1.5-31.8-10.9 c-7.4-9.4-4.2-18.8,5-23.3c3.8-1.8,9.9-2.1,16.8-2.6c6.8-0.6,13.3-3.5,13.3-3.5s10.1-2.5,11.9-10.9c1.8-8.3,15.2-24.5,35.2-31.1 l53.4,69.9c0,0-19.9,7.9-43.3,5.2C348.5,215.8,350.4,210.1,336.5,213.2z"></path> <ellipse transform="matrix(0.4295 -0.9031 0.9031 0.4295 58.8697 451.2767)" class="st7" cx="386.6" cy="179" rx="33.8" ry="48.7"></ellipse> <ellipse transform="matrix(0.3862 -0.9224 0.9224 0.3862 67.2033 463.6979)" class="st10" cx="382" cy="181.3" rx="28.9" ry="41.2"></ellipse> <path class="st16" d="M386.6,179l-9.3-11.9c0,0-12.1,2.3-20.4,11.9c-3.3,3.8-9.6,7-16.8,7.9c-6.6,0.8,2.7,6,2.7,6s3.3,6.9,6.5,6 c7-2,13.8-4.8,20.5-4.2c16.7,1.5,25.8-3.5,25.8-3.5L386.6,179z"></path> <path class="st9" d="M359.4,144.2c-20.7,6.9-25.3,28.2-10.3,47.4s44,29.2,64.7,22.3l-10,3.3c-20.7,6.9-49.7-3-64.7-22.3 s-10.4-40.4,10.3-47.4L359.4,144.2"></path> <path class="st9" d="M313.4,203.4c-5.4-6.8-4.6-14.3,1.3-18c-1.1,0.1-2.3,0.4-3.3,0.7c-8.4,2.8-10.3,11.5-4.2,19.3 c6.1,7.8,17.9,11.9,26.4,9.1c1.1-0.4,2-0.8,2.9-1.3C328.5,214.2,318.8,210.3,313.4,203.4z"></path> <ellipse transform="matrix(0.4295 -0.9031 0.9031 0.4295 58.8703 451.2774)" class="st9" cx="386.6" cy="179" rx="11.6" ry="16.7"></ellipse> </g> </g> <g> <path class="st18" d="M515.3,136.8c-8.4-10.8-33.7-13.4-56.4-5.8c-22.7,7.6-34.3,22.5-25.8,33.3c3.7,4.7,10.5,7.8,18.8,9.2l0,0 l-24.4,14.1c0,0,33.8-9.2,54.5-15.4c2.5-0.6,5-1.3,7.5-2.1c2.2-0.7,4.3-1.6,6.3-2.4c0.6-0.2,1-0.4,1.3-0.6h0 C514.6,159,522.7,146.3,515.3,136.8z"></path> <path class="st9" d="M466.6,147.9c-1.6-2.1-5.8-2.9-9.6-1.7c-3.7,1.2-5.5,3.8-3.9,6c-1.6-2.1-5.8-2.9-9.6-1.7 c-3.7,1.2-5.5,3.8-3.9,6c0,0,4.6,9.7,23.2,8.9C475.3,156.3,466.6,147.9,466.6,147.9z"></path> <g> <path class="st3" d="M479.9,145.8l-2,2.1l-3.6-1.6l3.8-4.4l3.9-1.3l8.6,11.3l-4.9,1.6L479.9,145.8z"></path> <path class="st3" d="M485.1,139.5l4.9-1.6l3.4,4.4l2.4-6.4l5.7-1.9l-2.8,6.8l11.9,4.3l-5.8,1.9l-7.7-2.8l-0.8,1.9l2.3,3l-4.9,1.6 L485.1,139.5z"></path> </g> </g> <g> <path class="st3" d="M465.9,196.4c-7.7,0-14.7,2-19.8,5.4c0,0-7.3,2.9-22.6,0.3c0,0,10.3,4.2,14.7,15.4l0,0 c2,8.8,13.6,15.6,27.7,15.6c15.5,0,28-8.2,28-18.3C493.8,204.6,481.3,196.4,465.9,196.4z"></path> <path class="st19" d="M460,205.7l6.9,3.8c0.4,0.2,1,0.3,1.5,0.1l7.7-3.1c1-0.4,2.3,0.3,1.8,1l-3.4,5.5c-0.2,0.3-0.1,0.7,0.4,0.9 l6.9,3.8c0.9,0.5,0.3,1.5-0.9,1.5l-9-0.4c-0.5,0-1.1,0.2-1.3,0.5l-3.4,5.5c-0.5,0.7-2.1,0.7-2.4-0.1l-2.2-5.8 c-0.1-0.3-0.6-0.6-1.1-0.6l-9-0.4c-1.2-0.1-1.6-1.1-0.6-1.5l7.7-3.1c0.5-0.2,0.7-0.6,0.6-0.9l-2.2-5.8 C457.7,205.7,459.1,205.1,460,205.7z"></path> </g> <g> <path class="st13" d="M379.8,128.9c1.5,4.5,5.7,8.3,11.3,10.6c0,0,5.5,3.7,5,13.2c0,0,3.6-6.9,18.2-11.7l0,0 c11.7-3,18.7-11.1,15.9-19.4c-3.1-9.1-16.9-14.8-30.8-12.8C385.5,110.8,376.7,119.8,379.8,128.9z"></path> <polygon class="st14" points="413.7,127.1 408.1,115.5 395.5,124.5 401.2,125.3 397.4,135.2 404.8,136.4 408.6,126.3 "></polygon> </g> <g> <g> <g class="st8"> <path d="M569.4,309l-96.6,32.4c-1.1,0.4-2.5,0.1-3-0.6l-49.4-63.2c-0.6-0.7-0.1-1.6,1-2l96.6-32.4c1.1-0.4,2.5-0.1,3,0.6 l49.4,63.2C571,307.8,570.5,308.7,569.4,309z"></path> </g> <g> <path class="st3" d="M572.4,299l-96.6,32.4c-1.1,0.4-2.5,0.1-3-0.6l-49.4-63.2c-0.6-0.7-0.1-1.6,1-2l96.6-32.4 c1.1-0.4,2.5-0.1,3,0.6l49.4,63.2C574,297.8,573.5,298.7,572.4,299z"></path> </g> </g> <path class="st14" d="M547.8,283L470.5,309c-1.1,0.4-2.5,0.1-3-0.6l-15.3-19.6c-0.6-0.7-0.1-1.6,1-2l77.3-25.9 c1.1-0.4,2.5-0.1,3,0.6l15.3,19.6C549.3,281.8,548.9,282.7,547.8,283z"></path> <g> <ellipse class="st14" cx="444.6" cy="270.2" rx="7.5" ry="4.9"></ellipse> <path class="st3" d="M446,269.8c0.1-0.3,0.1-0.7-0.2-1c-0.6-0.7-1.9-0.9-2.9-0.6c-1,0.4-1.4,1.2-0.9,1.9c0.3,0.3,0.7,0.6,1.2,0.7 c-1,0.7-1.6,1.6-1.6,2.5c1.6,0.7,3.8,0.8,5.6,0.1c1.8-0.6,2.8-1.9,2.9-3.1C448.9,269.7,447.4,269.6,446,269.8z"></path> </g> <path class="st11" d="M455.2,264.4l-1-1.3c-0.3-0.4-0.1-0.8,0.5-1l22.2-7.4c0.6-0.2,1.2,0,1.5,0.3l1,1.3c0.3,0.4,0.1,0.8-0.5,1 l-22.2,7.4C456.2,264.9,455.5,264.8,455.2,264.4z"></path> <path class="st11" d="M458.9,269.6l-0.5-0.7c-0.3-0.4-0.1-0.8,0.5-1l53.8-18c0.6-0.2,1.2,0,1.5,0.3l0.5,0.7c0.3,0.4,0.1,0.8-0.5,1 l-53.8,18C459.9,270.1,459.2,270,458.9,269.6z"></path> <path class="st11" d="M462.1,273.8l-0.5-0.7c-0.3-0.4-0.1-0.8,0.5-1l53.8-18c0.6-0.2,1.2,0,1.5,0.3l0.5,0.7c0.3,0.4,0.1,0.8-0.5,1 l-53.8,18C463,274.3,462.4,274.2,462.1,273.8z"></path> <g> <path class="st10" d="M530.3,297.7c-0.7-1.1-2.9-1.5-4.8-0.9c-1.9,0.6-2.8,1.9-2.1,3c-0.7-1.1-2.9-1.5-4.8-0.9 c-1.9,0.6-2.8,1.9-2.1,3c0,0,2.2,4.9,11.5,4.7C534.5,302,530.3,297.7,530.3,297.7z"></path> <path class="st14" d="M491.2,312.3c-1.7-2.3-6.5-3-10.8-1.7c-4.3,1.4-6.5,4.3-4.8,6.6c1.7,2.3,6.5,3,10.8,1.7l2,2.7 c0,0,3-5,3.2-6.6c0,0,0,0,0,0C491.9,314,491.8,313.1,491.2,312.3z"></path> <g> <path class="st11" d="M504.4,313c-0.9,0.3-1.9,0-2.3-0.5l-1.9-2.6l2.9,1.9l0.8-0.5l-7.5-4.8l1,6.8l1.1-0.1l-0.4-2.7l1.9,2.6 c0.7,0.9,2.1,1.5,3.6,1.5c0.6,0,1.2-0.1,1.7-0.3l3.6-1.1l-1-1.3L504.4,313z"></path> <path class="st11" d="M504.7,304.6c0.9-0.3,1.9,0,2.3,0.5l1.9,2.6l-2.9-1.9l-0.8,0.5l7.5,4.8l-1-6.8l-1.1,0.1l0.4,2.7l-1.9-2.6 c-0.5-0.6-1.3-1.1-2.3-1.3c-1-0.2-2.1-0.2-3,0.1l-3.6,1.1l1,1.3L504.7,304.6z"></path> </g> </g> <g> <polygon class="st6" points="458.7,253.8 483.4,328.9 508.5,320.5 484.7,245.3 "></polygon> <polygon class="st6" points="495.8,241.4 518,317.3 530,313.2 508.5,237.1 "></polygon> </g> </g> <g> <g> <g class="st8"> <path d="M308.6,294.7l-119.7,40.1c-1.1,0.4-2.5,0.1-3-0.6l-77.2-98.8c-0.6-0.7-0.1-1.6,1-2l119.7-40.1c1.1-0.4,2.5-0.1,3,0.6 l77.2,98.8C310.1,293.4,309.7,294.3,308.6,294.7z"></path> </g> <g> <path class="st3" d="M308.6,280.7l-119.7,40.1c-1.1,0.4-2.5,0.1-3-0.6l-77.2-98.8c-0.6-0.7-0.1-1.6,1-2l119.7-40.1 c1.1-0.4,2.5-0.1,3,0.6l77.2,98.8C310.1,279.4,309.7,280.3,308.6,280.7z"></path> </g> </g> <path class="st12" d="M290.3,257.2l-119.7,40.1c-1.1,0.4-2.5,0.1-3-0.6l-43-55c-0.6-0.7-0.1-1.6,1-2l119.7-40.1 c1.1-0.4,2.5-0.1,3,0.6l43,55C291.8,256,291.4,256.8,290.3,257.2z"></path> <g> <ellipse class="st12" cx="134.3" cy="224.5" rx="9.1" ry="6"></ellipse> <path class="st3" d="M136,224c0.2-0.4,0.1-0.9-0.2-1.3c-0.7-0.8-2.3-1.1-3.6-0.7c-1.3,0.5-1.7,1.5-1,2.3c0.3,0.4,0.9,0.7,1.5,0.8 c-1.3,0.8-1.9,1.9-2,3.1c2,0.8,4.6,0.9,6.8,0.2c2.2-0.8,3.5-2.3,3.5-3.8C139.5,224,137.7,223.8,136,224z"></path> </g> <path class="st11" d="M149,215.9l-1-1.3c-0.3-0.4-0.1-0.8,0.5-1l27.4-9.1c0.6-0.2,1.2,0,1.5,0.3l1,1.3c0.3,0.4,0.1,0.8-0.5,1 l-27.4,9.1C149.9,216.4,149.2,216.3,149,215.9z"></path> <path class="st11" d="M153.3,221.6l-0.5-0.7c-0.3-0.4-0.1-0.8,0.5-1l40.6-13.6c0.6-0.2,1.2,0,1.5,0.3l0.5,0.7 c0.3,0.4,0.1,0.8-0.5,1l-40.6,13.6C154.2,222.1,153.6,222,153.3,221.6z"></path> <g> <path class="st12" d="M196.8,309l-5.7,1.8c-0.6,0.2-1.2,0-1.5-0.3l-6.3-8.6c-0.3-0.4,0-0.8,0.5-1l5.7-1.8c0.6-0.2,1.2,0,1.5,0.3 l6.3,8.6C197.6,308.4,197.4,308.9,196.8,309z"></path> <path class="st11" d="M197,307.6l9.5-3c0.3-0.1,0.6-0.3,0.8-0.5c0.4-0.5,1-1.4,0.2-2.5l-2.2-3c-0.3-0.4-0.8-0.7-1.4-0.9 c-0.9-0.2-2.1-0.5-2.9-0.2c-1.3,0.4-3.3,1-3.3,1s0.4-2.8-0.8-4.1c-1.2-1.3-2.7-0.3-2.6,0.8c0,1.2,1.1,3.9-2.6,5.1L197,307.6z"></path> </g> <path class="st10" d="M224.3,287.2l-12.2,4.1c-0.8,0.3-1.2,0.9-0.7,1.5l4.4,5.7c0.4,0.5,1.4,0.8,2.3,0.5l1.2-0.4l1.1,2.7l2.3-3.8 l7.6-2.6c0.8-0.3,1.2-0.9,0.7-1.5l-4.4-5.7C226.2,287.2,225.2,287,224.3,287.2z"></path> <path class="st11" d="M240.2,295.2c0,0-5.2-7.2,3.1-9.9l-2.3-2.9l10.5,1.8l-4.4,6.1l-1.9-2.2C245.2,288.1,241.2,289.3,240.2,295.2 z"></path> <g> <polygon class="st6" points="164,205.5 197.8,317.8 233.8,305.9 198.7,193.9 "></polygon> <polygon class="st6" points="210.3,189.9 243.5,302.5 260.6,296.8 226,184.7 "></polygon> </g> </g> </g> </svg> 